name C:\Users\u0113767\Documents\WORK_KULeuven\MRI_model_creation\SEMLS_2\gait1\gait1_EMG.mot
datacolumns 17
datarows 33
range 3.53200000 3.56400000
endheader
                time	        Voltage.LREF	        Voltage.LVAL	        Voltage.LBIF	        Voltage.LMEH	        Voltage.LTIA	        Voltage.LGAS	        Voltage.LSOL	        Voltage.LGLU	        Voltage.RREF	        Voltage.RVAL	        Voltage.RBIF	        Voltage.RMEH	        Voltage.RTIA	        Voltage.RGAS	        Voltage.RSOL	        Voltage.RGLU	
          3.53200000	          0.01051003	          0.01106742	          0.14330877	          0.26303497	          0.54704992	          0.07848850	          0.00125986	          0.05006704	          0.16275848	          0.12528021	          0.00000000	          0.15801445	          0.16999664	          0.39952596	          0.76799298	          0.57277032	
          3.53300000	          0.00825179	          0.01093564	          0.14143416	          0.26101891	          0.54147769	          0.07883325	          0.00178294	          0.04839285	          0.17468821	          0.13402669	          0.00000000	          0.15200623	          0.17210120	          0.39656672	          0.76855501	          0.57293009	
          3.53400000	          0.00609902	          0.01079283	          0.13951669	          0.25871921	          0.53623910	          0.07905117	          0.00230208	          0.04670361	          0.18697564	          0.14332046	          0.00000000	          0.14620010	          0.17425469	          0.39403690	          0.76911777	          0.57272614	
          3.53500000	          0.00405940	          0.01063389	          0.13755269	          0.25613966	          0.53131474	          0.07913810	          0.00281111	          0.04500057	          0.19962476	          0.15316419	          0.00000000	          0.14061223	          0.17645980	          0.39192870	          0.76970795	          0.57218776	
          3.53600000	          0.00214036	          0.01045423	          0.13553816	          0.25328869	          0.52668610	          0.07908975	          0.00330371	          0.04328531	          0.21263916	          0.16356170	          0.00000000	          0.13525405	          0.17871747	          0.39023008	          0.77034986	          0.57134637	
          3.53700000	          0.00034816	          0.01024932	          0.13346714	          0.25018056	          0.52233979	          0.07890258	          0.00377382	          0.04155930	          0.22601826	          0.17451611	          0.00000000	          0.13013273	          0.18102485	          0.38892443	          0.77106049	          0.57023460	
          3.53800000	          0.00000000	          0.01001414	          0.13133160	          0.24683370	          0.51826691	          0.07857425	          0.00421695	          0.03982364	          0.23975491	          0.18602741	          0.00000000	          0.12525131	          0.18337664	          0.38798983	          0.77184885	          0.56888734	
          3.53900000	          0.00000000	          0.00974345	          0.12912249	          0.24326720	          0.51446032	          0.07810369	          0.00463030	          0.03807939	          0.25383558	          0.19809082	          0.00000000	          0.12060903	          0.18576944	          0.38739860	          0.77271812	          0.56734128	
          3.54000000	          0.00000000	          0.00943271	          0.12683147	          0.23949952	          0.51091655	          0.07749200	          0.00501193	          0.03632812	          0.26824176	          0.21069661	          0.00000000	          0.11620160	          0.18820420	          0.38711905	          0.77367121	          0.56563284	
          3.54100000	          0.00000000	          0.00907830	          0.12445329	          0.23554813	          0.50763991	          0.07674374	          0.00536003	          0.03457226	          0.28295077	          0.22383037	          0.00000000	          0.11202115	          0.19068572	          0.38711997	          0.77471800	          0.56379716	
          3.54200000	          0.00000000	          0.00867697	          0.12198794	          0.23142851	          0.50464001	          0.07586621	          0.00567294	          0.03281514	          0.29793460	          0.23747244	          0.00000000	          0.10805636	          0.19322162	          0.38737516	          0.77587690	          0.56186720	
          3.54300000	          0.00000000	          0.00822522	          0.11944051	          0.22715467	          0.50192428	          0.07486731	          0.00594989	          0.03106094	          0.31315822	          0.25159692	          0.00000000	          0.10429365	          0.19582122	          0.38786452	          0.77716999	          0.55987311	
          3.54400000	          0.00000000	          0.00771947	          0.11681869	          0.22274145	          0.49949432	          0.07375367	          0.00619139	          0.02931449	          0.32857957	          0.26617090	          0.00061052	          0.10071893	          0.19849341	          0.38857374	          0.77861826	          0.55784173	
          3.54500000	          0.00000000	          0.00715647	          0.11413020	          0.21820691	          0.49734637	          0.07253044	          0.00639856	          0.02758086	          0.34415040	          0.28115479	          0.00138417	          0.09731977	          0.20124431	          0.38949397	          0.78023874	          0.55579530	
          3.54600000	          0.00000000	          0.00653330	          0.11138224	          0.21357295	          0.49547143	          0.07120218	          0.00657257	          0.02586487	          0.35981656	          0.29650353	          0.00228128	          0.09408681	          0.20407640	          0.39061965	          0.78204117	          0.55375105	
          3.54700000	          0.00000000	          0.00584711	          0.10858230	          0.20886367	          0.49385435	          0.06977439	          0.00671437	          0.02417128	          0.37551965	          0.31216742	          0.00330747	          0.09101237	          0.20698936	          0.39194536	          0.78402623	          0.55172273	
          3.54800000	          0.00000000	          0.00509595	          0.10573903	          0.20410286	          0.49247366	          0.06825419	          0.00682431	          0.02250504	          0.39120106	          0.32809141	          0.00446778	          0.08808918	          0.20998030	          0.39346503	          0.78618703	          0.54972191	
          3.54900000	          0.00000000	          0.00428003	          0.10286302	          0.19931286	          0.49130292	          0.06664999	          0.00690196	          0.02087121	          0.40680466	          0.34421322	          0.00576631	          0.08531181	          0.21304344	          0.39517304	          0.78851212	          0.54776032	
          3.55000000	          0.00000000	          0.00340198	          0.09996720	          0.19451489	          0.49031222	          0.06497074	          0.00694647	          0.01927457	          0.42227519	          0.36046221	          0.00720611	          0.08267727	          0.21617086	          0.39706581	          0.79098812	          0.54585277	
          3.55100000	          0.00000000	          0.00246647	          0.09706645	          0.18972868	          0.48946950	          0.06322515	          0.00695679	          0.01771947	          0.43755387	          0.37676080	          0.00878860	          0.08018312	          0.21935442	          0.39914189	          0.79360184	          0.54401590	
          3.55200000	          0.00000000	          0.00147956	          0.09417647	          0.18497136	          0.48874075	          0.06142094	          0.00693208	          0.01620980	          0.45257548	          0.39302757	          0.01051301	          0.07782703	          0.22258804	          0.40140016	          0.79634434	          0.54226370	
          3.55300000	          0.00000000	          0.00044862	          0.09131236	          0.18025699	          0.48808832	          0.05956483	          0.00687256	          0.01474880	          0.46726917	          0.40917891	          0.01237694	          0.07560866	          0.22586890	          0.40383870	          0.79921453	          0.54060629	
          3.55400000	          0.00000000	          0.00000000	          0.08848782	          0.17559743	          0.48746887	          0.05766302	          0.00677984	          0.01333903	          0.48156229	          0.42512792	          0.01437697	          0.07352920	          0.22919709	          0.40645447	          0.80221651	          0.53905160	
          3.55500000	          0.00000000	          0.00000000	          0.08571512	          0.17100347	          0.48683357	          0.05572116	          0.00665608	          0.01198236	          0.49538451	          0.44078300	          0.01650848	          0.07158855	          0.23257639	          0.40924256	          0.80535336	          0.53760482	
          3.55600000	          0.00000000	          0.00000000	          0.08300512	          0.16648462	          0.48612943	          0.05374427	          0.00650287	          0.01068000	          0.50866993	          0.45604935	          0.01876501	          0.06978395	          0.23601579	          0.41219593	          0.80862520	          0.53626752	
          3.55700000	          0.00166224	          0.00000000	          0.08036697	          0.16204779	          0.48530190	          0.05173745	          0.00632085	          0.00943271	          0.52135684	          0.47083265	          0.02113775	          0.06811088	          0.23952744	          0.41530769	          0.81203083	          0.53503956	
          3.55800000	          0.00408638	          0.00000000	          0.07780796	          0.15769649	          0.48430008	          0.04970635	          0.00611005	          0.00824128	          0.53338895	          0.48504220	          0.02361559	          0.06656393	          0.24312180	          0.41857413	          0.81556892	          0.53392014	
          3.55900000	          0.00675493	          0.00000000	          0.07533408	          0.15343102	          0.48308179	          0.04765704	          0.00587022	          0.00710679	          0.54471669	          0.49859053	          0.02618548	          0.06513661	          0.24680543	          0.42199461	          0.81923720	          0.53290506	
          3.56000000	          0.00966754	          0.00000000	          0.07295087	          0.14924885	          0.48161495	          0.04559563	          0.00560093	          0.00603025	          0.55529389	          0.51138979	          0.02883338	          0.06382078	          0.25058344	          0.42556872	          0.82302979	          0.53198377	
          3.56100000	          0.01282374	          0.00000000	          0.07066371	          0.14514482	          0.47987918	          0.04352787	          0.00530141	          0.00501210	          0.56507178	          0.52334912	          0.03154490	          0.06260646	          0.25446252	          0.42929511	          0.82693505	          0.53113844	
          3.56200000	          0.01622232	          0.00000000	          0.06847724	          0.14111157	          0.47786860	          0.04145853	          0.00497013	          0.00405218	          0.57399740	          0.53437815	          0.03430524	          0.06148227	          0.25845017	          0.43317196	          0.83093839	          0.53034463	
          3.56300000	          0.01986069	          0.00000000	          0.06639472	          0.13714013	          0.47559119	          0.03939120	          0.00460464	          0.00315012	          0.58201665	          0.54439362	          0.03709895	          0.06043644	          0.26255208	          0.43719810	          0.83502863	          0.52957334	
          3.56400000	          0.02373585	          0.00000000	          0.06441791	          0.13322037	          0.47306423	          0.03732905	          0.00420246	          0.00230573	          0.58907691	          0.55332330	          0.03991005	          0.05945760	          0.26677028	          0.44137441	          0.83920073	          0.52879361	
